# xmcd
#
# Track frame offsets: 
#        183
#        19585
#        35808
#        48983
#        64955
#        92580
#        110465
#        126548
#        141418
#        156375
#        174813
#        187728
#        202163
#
# Disc length: 2947 seconds
#
# Revision: 0
# Processed by: cddbd v1.5.2PL0 Copyright (c) Steve Scherf et al.
# Submitted via: ExactAudioCopyFreeDBPlugin 1.0
#
DISCID=ba0b810d
DTITLE=雷安娜 - 追憶舊夢
DYEAR=1982
DGENRE=廣東歌
TTITLE0=停不了的愛
TTITLE1=真的喜歡你
TTITLE2=人在旅途酒淚時
TTITLE3=做個木頭人
TTITLE4=遠方天外
TTITLE5=美麗的童話
TTITLE6=舊夢不須記
TTITLE7=暫別
TTITLE8=濁世暖流清
TTITLE9=痴情劫
TTITLE10=山石盟
TTITLE11=別了憂鬱 JOHNNY BLUE
TTITLE12=彩雲曲
EXTD=
EXTT0=
EXTT1=
EXTT2=
EXTT3=
EXTT4=
EXTT5=
EXTT6=
EXTT7=
EXTT8=
EXTT9=
EXTT10=
EXTT11=
EXTT12=
PLAYORDER=
